<svg width="20" height="20" viewBox="0 0 20 20" fill="none" xmlns="http://www.w3.org/2000/svg">
<path fill-rule="evenodd" clip-rule="evenodd" d="M3.00483 3.00501C3.2782 2.73165 3.72141 2.73165 3.99478 3.00501L9.9998 9.01004L16.0048 3.00501C16.2782 2.73165 16.7214 2.73165 16.9948 3.00501C17.2681 3.27838 17.2681 3.7216 16.9948 3.99496L10.9898 9.99999L16.9948 16.005C17.2681 16.2784 17.2681 16.7216 16.9948 16.995C16.7214 17.2683 16.2782 17.2683 16.0048 16.995L9.9998 10.9899L3.99478 16.995C3.72141 17.2683 3.2782 17.2683 3.00483 16.995C2.73146 16.7216 2.73146 16.2784 3.00483 16.005L9.00985 9.99999L3.00483 3.99496C2.73146 3.7216 2.73146 3.27838 3.00483 3.00501Z" fill="black"/>
</svg>
