<svg width="16" height="16" viewBox="0 0 16 16" fill="none" xmlns="http://www.w3.org/2000/svg">
<path d="M2.40576 2.72528C2.431 2.92719 2.61757 3.17425 2.68614 3.37015C2.78113 3.64157 2.77771 3.93992 2.89441 4.19925C3.17129 4.81452 3.33988 5.49377 3.53527 6.13784C3.7 6.68085 3.91608 7.17674 4.02793 7.73598C4.1517 8.35482 4.23714 8.98487 4.38441 9.59847C4.47588 9.97961 4.57889 10.3517 4.64876 10.736C4.68061 10.9112 5.06266 11.5406 4.96919 11.6652C4.47808 12.32 6.22179 10.5875 6.6995 9.9229C6.94921 9.57548 7.08144 9.0809 7.39643 8.7974C7.58293 8.62955 8.91367 10.2473 9.03062 10.3915C9.48984 10.9577 10.215 11.3988 10.5807 12.0177C10.8832 12.5297 11.2756 12.9765 11.7543 13.3355C12.2102 13.6774 11.6572 13.0859 11.562 12.9309C11.2617 12.4422 10.9146 11.9774 10.5927 11.501C10.3852 11.194 10.1765 10.8143 9.90378 10.5678C9.59034 10.2845 9.23961 9.91594 9.04263 9.53839C8.93972 9.34114 8.93634 9.24547 8.75024 9.12584C8.67078 9.07476 8.85139 9.07071 8.86239 9.06976C9.05123 9.05358 9.21897 8.93942 9.35505 8.81342C9.94376 8.26832 10.6085 7.59626 10.9692 6.87483C11.0316 6.74996 11.1011 6.64283 10.9452 6.61448C10.5079 6.53498 10.0648 6.03072 9.71954 5.79338C8.74988 5.12675 7.78691 4.46663 6.83568 3.76668C6.11486 3.23626 5.38286 2.89551 4.54863 2.5851C4.0645 2.40496 3.51537 2.30679 3.05463 2.07642" stroke="#6829F0" stroke-width="2" stroke-linecap="round"/>
</svg>
