<svg viewBox="0 0 224 11" fill="none" xmlns="http://www.w3.org/2000/svg">
<path d="M2.35156 5.94262C10.9843 4.51376 19.5796 2.12629 28.3175 3.21852C31.1493 3.5725 34.0126 3.10849 36.8375 2.92872C39.6442 2.75012 42.3856 3.33444 45.1837 3.33444C48.5111 3.33444 54.7284 1.20174 57.761 2.8128C62.935 5.5615 69.7674 2.80734 75.2937 3.42138C77.6863 3.68722 79.742 5.12956 82.104 5.39201C83.9907 5.60165 86.01 5.00708 87.9 4.92833C90.3356 4.82684 95.3365 4.75635 97.5792 6.05854C99.4961 7.17155 99.9276 9.4124 102.419 9.24632C105.659 9.03031 108.625 8.1325 111.634 6.9859C117.455 4.76845 122.818 3.74477 129.051 3.85608C133.921 3.94304 138.678 4.7478 143.599 4.26179C144.41 4.1817 146.102 3.46209 146.845 4.08792C147.406 4.56082 148.018 5.10789 148.758 5.30507C153.208 6.4918 158.456 6.46426 163.016 6.46426C171.269 6.46426 179.537 6.30855 187.619 4.40669C193.509 3.021 199.687 5.35992 205.703 3.85608C210.719 2.60192 216.789 1.76953 221.961 1.76953"
stroke="#6829F0"
stroke-width="2"
stroke-linecap="round"/>
</svg>
