<svg viewBox="0 0 209 9" fill="none" xmlns="http://www.w3.org/2000/svg">
<path d="M1.81445 4.6568C15.6267 2.50007 29.7061 0.640546 43.6613 1.9327C48.3407 2.36597 52.9595 2.57025 57.6585 2.57025C65.6465 2.57025 73.7327 1.18618 81.6828 1.55596C85.7924 1.7471 89.4334 3.80828 93.7384 3.49761C97.8205 3.20302 101.713 2.93912 105.823 3.38169C108.991 3.72287 112.978 4.95923 116.053 3.72944C116.915 3.38476 119.577 3.00452 120.458 3.20781C124.115 4.05174 126.801 5.57441 130.717 5.67109C138.164 5.85497 145.605 5.23686 153.031 4.77272C157.48 4.49468 162.862 6.06473 167.086 4.6568C169.74 3.77235 173.393 5.52491 176.244 5.67109C186.645 6.20447 196.363 6.74334 206.818 6.74334"
stroke="#6829F0"
stroke-width="2"
stroke-linecap="round"/>
</svg>
